<?xml version="1.0" encoding="UTF-8"?>
<svg id="_图层_1" data-name="图层_1" xmlns="http://www.w3.org/2000/svg" version="1.1" viewBox="0 0 480 168">
  <!-- Generator: Adobe Illustrator 30.3.0, SVG Export Plug-In . SVG Version: 2.1.3 Build 182)  -->
  <defs>
    <style>
      .st0 {
        fill: #030303;
      }
    </style>
  </defs>
  <g>
    <path class="st0" d="M462.49,109.32c-10.78-5.17-17.26-14.18-21.17-25.48l-3.44,8.3h-8.34c2.29-3.48,3.87-7.09,5.08-11.05,1.48-5.02,2.14-10.05,2.36-15.32h7.41c-.23,1.51-.1,2.82.14,4.27.93,6.45,2.76,12.58,5.96,18.25,3.84,6.81,9.43,12.17,16.75,15.37-1.92,1.72-3.54,3.43-4.75,5.66Z"/>
    <path class="st0" d="M421.32,109.7c-1.48-2.18-3.24-3.73-5.38-5.33,4.92-2.68,9.03-6.06,12.36-10.5l8.64-.02c-3.74,6.58-9.01,11.93-15.62,15.85Z"/>
    <polygon class="st0" points="444.46 64.06 437.05 64.09 437.14 59.15 444.63 59.15 444.46 64.06"/>
  </g>
  <g>
    <g>
      <path class="st0" d="M376.52,98.18l-5.76-.02-.02,2.89h-5.94s-.03-2.99-.03-2.99l-1.92.73c-.9-1.86-1.94-3.41-3.43-5.02,4.23-1.59,8.18-3.51,11.82-6.42l-10.45-.11-.03-5.64h16.32c1.13-1.42,2.01-2.89,2.88-4.6l-15.14-.02v-5.46s11.75,0,11.75,0v-4.86s-5.98,0-5.98,0l-.02,3.18h-5.75s0-8.65,0-8.65h17.95s0,15.46,0,15.46l4.08.8-2.25,4.07,1.36.12v5.6s-5.8.01-5.8.01l-5.84,5.28,8.51.07v16.79s-6.17,0-6.17,0l-.19-.95-5.63-.02-.09,1.29h-5.94s0-6.98,0-6.98l11.67.1.06-4.65Z"/>
      <path class="st0" d="M406.14,109.29l-6.02.12-.31-.96-4.52-.02v-5.58s4.64-.03,4.64-.03v-4.65s-6.38,0-6.38,0v11.54s-5.96,0-5.96,0v-17.11s7.29-.06,7.29-.06c-2.11-1.73-3.91-3.29-5.61-5.21-.44-.18-1.12-.09-1.65-.06v-5.66s8.74-.05,8.74-.05l-5.22-2.67,1.8-1.85-5.39-.05v-15.78s10.62,0,10.62,0v5.47s-4.79,0-4.79,0v4.85s6.53,0,6.53,0l-.05-10.32h6.23s0,15.78,0,15.78l-8.49.08c1.72.84,3.24,1.63,4.83,2.86l-1.64,1.66,9.17.02v5.63s-12.43.08-12.43.08c4.28,3.16,8.91,5.08,14.07,6.52-1.59,1.58-2.8,3.16-3.98,5.01-.16.26-.99-.07-1.45-.27l-.03,10.72Z"/>
    </g>
    <path class="st0" d="M325.74,109.6c-1.67-1.6-3.25-2.94-5.05-4.15,3.01-3.08,4.86-6.6,6.05-10.55,1.17-4.04,1.68-8.06,1.7-12.27l.06-12.77h6.24s-.05,12.72-.05,12.72c-.19,5.41-.81,10.58-2.41,15.72-1.4,4.18-3.29,7.99-6.55,11.31Z"/>
    <path class="st0" d="M355.48,96.47c-.07,3.08-.09,6.03-.7,8.95-.42,2.03-1.94,3.66-4,3.65l-5.02-.03c-2.08-.01-3.77-1.7-3.95-3.73l-.29-3.33v-17.98s6.39-.02,6.39-.02l.14,18.7c.22.82,2.2.74,2.44-.1l.41-8.63c1.42,1.03,2.69,1.89,4.58,2.51Z"/>
    <polygon class="st0" points="341.53 82.32 341.52 68.32 334.71 68.23 328.51 68.15 328.51 62.16 347.95 62.16 347.95 82.31 341.53 82.32"/>
    <rect class="st0" x="320.4" y="70.2" width="5.42" height="6.14"/>
    <g>
      <path class="st0" d="M285.36,109.67l-6.37.04-.06-6.75.09-8.12-10.36-.05.02-4.09,20.13.07c.15-.69.1-1.38.06-2.26l-20.2.06v-9.98s26.53,0,26.53,0v16.2s-9.83,0-9.83,0v2.64s12.59,0,12.59,0v5.28s-12.61,0-12.61,0v6.96ZM274.68,82.62v2.28s14.23,0,14.23,0v-2.28s-14.23,0-14.23,0Z"/>
      <polygon class="st0" points="286.21 67.81 277.6 67.73 278.74 70.96 279.35 71.56 279.36 76.45 265.64 76.45 265.63 71.34 272.7 71.34 271.79 68.55 274.11 67.74 267.6 67.74 267.6 62.7 278.68 62.69 277.87 59.99 283.69 58.59 285.19 62.67 296.23 62.72 296.22 67.73 288.68 67.74 292.7 68.62 291.34 71.27 292.8 71.34 292.81 76.44 281.04 76.45 281.04 71.34 285.08 71.31 286.21 67.81"/>
      <polygon class="st0" points="254.83 67.02 254.82 86.15 249.17 86.15 249.17 61.2 256.08 61.2 256.09 66.92 254.83 67.02"/>
      <rect class="st0" x="249.18" y="87.84" width="5.65" height="21.8"/>
      <path class="st0" d="M257.87,79.95l-1.38-1.76,3.19-11.21-1.93-.02v-5.8s4.95.03,4.95.03c1.51.01,2.76,1.55,4.2,2.16l-4.78,14,1.54,2.56-5.8.04Z"/>
      <path class="st0" d="M256.93,97.32c-.14-2.01-.54-3.79-1.41-5.63l2.73.06c3.19.07,2.52-6.59.61-10.14h5.77c1.57,3.63,1.86,7.48,1.04,11.25-1.19,4.05-4.43,4.58-8.74,4.45Z"/>
      <rect class="st0" x="265.75" y="97.44" width="11.45" height="5.28"/>
      <rect class="st0" x="294.48" y="71.34" width="3.42" height="5.11"/>
    </g>
    <g>
      <path class="st0" d="M190.61,53.57l.1,1.09c.7,7.38-.12,14.55-2.25,21.71-2.44,8.23-4.85,16.24-8.32,24.17l6.95.16,6.56.17v-10.37s6.02,0,6.02,0v10.56s1.67.24,1.67.24l.02-3.18h6.93s0-7.62,0-7.62h6.2s0,11.14,0,11.14c.73.26,1.66.27,2.4-.15,2.81-1.61,5.2-3.67,7.28-6.14-2.02-3.92-3.38-7.82-4.63-12.14l-2.39,3.33-2.63-2.22-.05,4.97h-20.83s0-5.99,0-5.99h7.2s0-8.33,0-8.33h-9.38s0-6.07,0-6.07h9.39s0-9.95,0-9.95h6.49s0,9.95,0,9.95h8.87s0,6.06,0,6.06l-8.87.02v8.32s5.83-.04,5.83-.04l-1.37-1.1c2.05-2.22,3.4-4.62,4.69-7.26,2.3-5.04,3.67-10.29,4.56-15.9l6.62,1.01-1.99,8.61,1.82.07v6.1s-3.83.02-3.83.02c1.05,4.99,2.33,9.68,4.48,14.18,2.21-4.61,3.26-9.23,4.03-14.14l-2.99-.04v-6.14s13,0,13,0v6.15s-3.45.04-3.45.04c-1.22,7.21-3.03,14.1-6.78,20.5,2.81,3.83,6.4,6.82,10.82,8.77-1.79,1.76-3.14,3.46-4.39,5.62-4.15-1.97-7.67-4.97-10.61-8.69-3.57,3.76-7.63,6.53-12.23,8.66-.87-2.01-1.95-3.72-3.31-5.48h-10.69c-.21-.26-.26-.56-.27-.99-.57-.03-1.02.07-1.61.27l-.02,3.87h-5.99s-.02-3.73-.02-3.73l-6.57.17-7.51.16c-.84.02-1.07.42-1.38,1.09-3.37,7.12-7.09,13.91-11.25,20.61-8.06,12.98-17.78,22.96-32.83,27.2-6.68,1.88-13.41,2.46-20.35,2.5-.67,0-1.32.46-2.07.35l-2.77-.4c-4.71-.68-9.26-1.07-13.81-2.49-7.76-2.41-14.92-6.01-20.9-11.48l-3.9-3.57-4.76-5.34c-6.07-6.81-13.41-20.07-17.31-28.78l-12.81-.39-6.21-.26-7.28-.2-7.42-.45-4.43-.12c-.28-.31-.71-.21-1.06-.21l-4.96.03.23-.54h5.03c.4,0,.9.14,1.24-.22l5.14-.12,6.91-.47,7.09-.14,17.02-.63c-3.25-8.1-6.05-15.9-8.24-24.14-1.64-6.19-2.79-15.26-1.78-21.13l.19-1.1c.29-1.69.82-3.25,1.33-5.01,1.68-5.81,4.1-11.31,8.01-15.96,3.12-3.7,7.07-6.53,11.76-7.63,5.85-1.37,11.85-.78,17.24,1.76,4.15,1.96,7.23,5.09,10.06,8.88,1.51-4.37,3.8-8.19,6.57-11.86,1.83-2.43,3.94-4.34,6.46-6.05,4.95-3.7,10.94-5.07,17.09-4.92,14.23.34,23.11,9.98,27.51,23.02,6.09-7.79,13.64-11.99,23.38-11.34,10.66.72,17.41,7.58,21.26,17.15,1.57,3.9,2.64,7.88,3.02,11.95ZM92.1,44.26l10.62,6.15c.82-.58,1.44-1.23,1.79-2.14l-11.03-6.44,19.55-11.28.02,12.92c4.44-.46,8.36,2.04,10.36,5.92.76,2.58,5.32,2.95,8.48,3.06l6.46.22,11.55.25,9.33.24,11.03.24,9.88.23,4.67.08c-1.69-11.15-6.97-23.15-19.44-23.5-4.18-.12-8.07.77-11.57,3.13-4.21,2.84-7.22,6.91-9.32,11.5-.56,1.23-1.97,1.73-3.07,1.55-1.28-.21-2.19-1.15-2.44-2.51-2.56-14.01-10.51-26.2-25.9-25.29l-.12,7.03-8.32-4.8c-1.03.4-2,.85-2.72,1.62l9.73,5.65-19.46,11.27-.18-4.44c-1.5,3.03-2.31,6.02-3.01,9.17-.31,1.38-1.4,2.34-2.73,2.42-1.23.08-2.28-.76-2.96-2l-14.97,8.63v-22.53s9.17,4.97,9.17,4.97c-4.42-4.83-11.25-6.38-17.42-5.11l-8.41,4.88c-1.58,1.63-2.96,3.37-3.96,5.47l17.84-10.25v22.65s-18.75-10.85-18.75-10.85l-1.17,2.57,14.39,8.25c.96.55,2.12.15,3.14.13l11.12-.21,8.36-.26,9.4-.17.05-8.43ZM120.95,54.3c0-3.95-3.2-7.15-7.15-7.15s-7.15,3.2-7.15,7.15,3.2,7.15,7.15,7.15,7.15-3.2,7.15-7.15ZM44.51,53.65l-.12-5.29-1.64,5.36c.63.05,1.13.07,1.76-.06ZM92.09,71.81l8.37,4.77,3.07-1.4-10.03-5.82,12.65-7.37-1.77-2.16-12.28,7.06-.08-11.21-3.24-.14-10.44-.21-7.56-.17c-2.49-.05-4.87-.29-7.25-.13.12.42.41.45.54.62l-19.55,11.28-.08-12.38c-.72-.11-1.25-.11-1.86.05-1.05,6.87.02,13.96,1.69,20.54.33-1.18.17-2.21.18-3.43l19.65,11.35-14.43,8.38.99,2.61,14.86-8.57.02,13.83c2.18.1,4.25-.03,6.43-.16l3.61-.22c2.01-.12,3.84-.32,5.76-1.07,2.24-.91,4.04-2.84,4.91-5.19l-16.53-9.63,19.55-11.34.05,15.13,2.7-3.67.04-11.37ZM159.74,85.58h19.84s.76-2.42.76-2.42h-16.17c-.56-.01-1.03-.32-1.37-.66l-3.95-3.91-14.34-.03c-.66,0-1.04-.69-.99-1.14.05-.39.4-.91.98-.92l14.39-.05c.63,0,1.19.27,1.59.67l3.97,3.9,16.59-.02.69-2.41-14.92-.02c-.74,0-1.21-.57-1.16-1.15.05-.53.5-.97,1.16-.98l15.5.02,2.22-8.18-9.56-.03c-.6,0-1.14-.09-1.6-.43l-3-2.95-2.59-.03c-.57,0-.92-.47-.98-.92-.05-.38.18-1,.79-1.05,4.16-.39,3.95,0,7.08,3.21l10.2.04.36-5.31h-17.46c-.75,0-1.21-.58-1.16-1.16.05-.51.49-.97,1.16-.97h17.43s-.29-4.16-.29-4.16l-6.45.09-10.36.21-10.83.25-9.05.23-10.87.25-6.17.22c-2.27.08-5.85.55-7.26,1.88-1.63,4.67-5.89,7.51-10.89,7.31v8.7c2.44,0,4.71-.13,7.05.4,10.06,2.38,16.7,8.85,21.05,18.05,2.8,5.92,5.3,7.02,12.15,7.32l8.47.37c1.31-.03,2.57-.06,3.84.25l8.37.24,3.43-8.55-11.13.03-2.68,2.67c-.4.4-.96.68-1.58.68l-6-.05c-.65,0-1.05-.65-.99-1.12.07-.55.55-.93,1.21-.93l5.82-.06,2.66-2.68c.42-.42.97-.65,1.61-.65h11.83s.68-1.95.68-1.95h-19.22c-.75,0-1.22-.58-1.16-1.16.05-.52.46-.97,1.3-.97ZM139.12,102.23c0-13.97-11.33-25.3-25.3-25.3s-25.3,11.33-25.3,25.3,11.33,25.3,25.3,25.3,25.3-11.33,25.3-25.3ZM145.25,121.05c-.49-.5-.24-1.22.11-1.5.38-.31,1.02-.36,1.45.06l4.83,4.81,7.97.05,1.08.27,4.25-7.02-6.97-.03-2.42,2.31c-.46.44-1.18.31-1.51-.1-.29-.35-.35-.98.03-1.38l2.25-2.31c.41-.42.98-.66,1.6-.65l8.24.02.88-1.6-6.42-.04c-.65,0-1.12-.51-1.11-1.03,0-.55.45-1,1.11-1.01l7.62-.04,3.93-7.61-7.37.27-7.17.3c-3.4-.05-6.67.21-9.96,1.02-2.28.56-4.05,1.58-5.16,3.81l-3.08,6.2-2.69,3.8c-5.64,7.31-14.14,11.57-23.43,11.37l-.04,4.65-19.45-11.27c.36-.18.71-.78.49-.98-1.94-1.75-3.41-3.64-4.92-5.72l-.13,4.14-19.51-11.31,9.1-5.33c-.93-.54-1.82-.63-2.77-.52-1.76-.42-3.48-.28-5.27-.35s-3.45-.28-5.23-.16l-.03,3.9-7.3-4.08-3.3-.36c.13.77.38,1.7,1.04,2.1l8.09,4.79-4.38,2.63c2.68,4.73,5.46,9.1,8.63,13.29l.05-13.47,19.52,11.27-14.33,8.34,2.01,2.02,12.04-6.99c.4-.23,1.65-.49,1.66.31l.08,16.41,2.98,1.26.02-18.83,19.55,11.32-15.41,8.91c1.15.46,2.41.78,3.83,1.02l12.98-7.51v8.97c5.9.09,11.53-.37,17.24-1.73,8.6-2.01,16.2-6.34,22.25-12.96l-3.07-.04-3.14,3.11c-.48.47-1.18.38-1.56-.05s-.3-1.07.18-1.55l2.97-3.02c.42-.43.98-.65,1.6-.66l5.08-.03,1.49-1.91h-9s-3.77,3.74-3.77,3.74c-.47.47-1.28.43-1.62,0-.3-.38-.27-1.08.13-1.49l3.82-3.86c.36-.37.93-.54,1.48-.54h10.63s1.3-1.93,1.3-1.93l-7.62-.02c-.69,0-1.27-.3-1.73-.77l-4.69-4.76Z"/>
      <path class="st0" d="M136.54,97.3c.17.79-.11,1.33-.64,1.52-.42.15-1.23-.13-1.37-.79-.99-4.57-3.07-8.74-6.59-11.89-2.77-2.48-5.97-4.22-9.57-5.09-.71-.17-1.07-.6-1-1.26.06-.57.73-1.03,1.44-.86,9.11,2.24,15.72,9,17.73,18.37Z"/>
      <polygon class="st0" points="65.55 80.67 45.99 69.38 65.56 58 65.55 80.67"/>
      <polygon class="st0" points="87.87 69.35 68.33 80.67 68.32 58 87.87 69.35"/>
      <path class="st0" d="M119.37,54.22c-1.66.73-.81-3.09-4.93-4.26-.53-.15-.7-.44-.73-.89-.02-.34.21-.95.79-.86,4.28.72,6.24,5.4,4.87,6Z"/>
    </g>
    <g>
      <path class="st0" d="M312.6,92.64c-.09-1.37.2-2.54-.17-3.98-1.57,4.15-3.27,8.06-6.06,11.72-.84-2.05-1.78-3.93-3.12-5.95,4.02-5.24,6.75-11.61,8.53-18.11h-7.18s0-6.11,0-6.11l7.98-.05v-11.16s6.2.01,6.2.01l-.03,10.09.05,10.45,7.66,9.02-3.68,5.23-3.96-6.51-.06,5.34h-6.17Z"/>
      <rect class="st0" x="312.59" y="94.32" width="6.18" height="15.36"/>
    </g>
    <g>
      <path class="st0" d="M467.28,113.28v8.88H191.28v-8.88h276ZM202.3,120.91l-.02-5,2.17-.09c.06-.43.07-.82-.01-1.34h-6.38s-.02,1.39-.02,1.39l2.23-.02v5.08s2.03-.03,2.03-.03ZM233.05,120.89v-6.38s-1.96,0-1.96,0v2.42c-.88.15-1.69.14-2.6,0l-.03-2.44-2-.02v6.48s2-.02,2-.02v-2.57s2.58.04,2.58.04l.05,2.51c.71.08,1.29.11,1.96-.03ZM260.61,118.31l-.02-1.18-2.54-.11c-.29-.01-.21-1.14.14-1.15l3.03-.09-.02-1.28h-5.32s0,6.46,0,6.46h5.35s0-1.33,0-1.33l-3.24-.08c-.11-.43-.1-.81,0-1.2l2.62-.04ZM319.61,120.78c1.81-.47,2.55-1.7,2.5-3.3-.09-2.9-3.3-3.22-6.62-2.98v6.46c1.44-.04,2.81.16,4.11-.18ZM349.12,118.29c.06-.61.04-.92-.08-1.23-.95.02-1.78.21-2.57-.09-.27-.1-.23-1.05.03-1.06l3.03-.1c.13-.45.14-.81.06-1.31h-5.29s0,6.46,0,6.46h5.31c.07-.52.06-.89-.03-1.33l-3.09-.05c-.27,0-.32-1.08-.03-1.1l2.64-.18ZM376.85,117.29l-2.66.04c-.07-.51-.08-.9.02-1.48l3.17-.06v-1.32s-5.2.01-5.2.01v6.44s1.98,0,1.98,0l.08-2.29,2.73-.09c.09-.47.1-.94-.12-1.26ZM404.36,118.31v-1.18s-2.55-.1-2.55-.1c-.3-.01-.21-1.14.15-1.16l2.94-.1-.05-1.29h-5.15s0,6.47,0,6.47h5.31s0-1.33,0-1.33l-3.02-.04c-.39,0-.45-1.13-.16-1.15l2.56-.13ZM429.5,118.75c-.44-.71-.41-1.55.14-2.18,1.36-1.56,3.32.57,3.73-1.28-1.78-1.44-4.74-.93-5.88,1.13-.71,1.29-.26,2.98.92,3.76,1.57,1.05,3.71,1.18,5.06-.16.07-.29-.51-.79-.76-.83-.35-.06-2.3,1.02-3.22-.44ZM459.34,120.91l-.02-5.01,2.16-.06v-1.35s-6.39,0-6.39,0v1.33s2.19.1,2.19.1l.04,5.02,2.02-.03ZM289.74,117.54c-.14-.84-1.14-1.12-1.78-1.02-.55.08-1.35.54-1.27,1.27.1.85.99,1.05,1.67,1.06.63,0,1.53-.4,1.38-1.31Z"/>
      <path class="st0" d="M317.5,119.62l.02-3.82c.96-.17,1.94.08,2.36.77s.43,1.8-.11,2.41c-.5.58-1.52.87-2.27.64Z"/>
    </g>
  </g>
</svg>